<svg xmlns="http://www.w3.org/2000/svg" width="297.41528" height="35.53613" viewBox="0 0 297.41528 35.53613">
  <g id="Layer_2" data-name="Layer 2">
    <g id="Layer_1-2" data-name="Layer 1">
      <path d="M0,0H5.48267V14.9248H25.17993V0H30.6626V35.53613H25.17993V19.84961H5.48267V35.53613H0ZM67.06641,28.7334H47.31836L44.3739,35.53613H38.43433L54.42554,0H59.9082L75.89966,35.53613H70.01074Zm-2.08155-4.77149L57.21777,6.14258h-.10156L49.39978,23.96191ZM78.8479,0h5.68579l6.498,27.9209h.10156L101.4895,0h5.229l10.407,27.9209h.10156L123.67432,0h5.68579l-8.37647,35.53613H114.7395l-10.61011-27.667h-.10156l-10.61011,27.667H87.22437Zm61.07788,0h5.48267V17.91992H145.51L162.5166,0h7.66577L155.15552,15.38184l15.636,20.15429h-6.80273L151.44971,19.08789h-.10157l-5.93969,6.29492V35.53613h-5.48267ZM189.7312,4.92383H176.58276V0H208.3623V4.92383H195.21387v30.6123H189.7312ZM237.25146,28.7334h-19.748l-2.94434,6.80273h-5.9397L224.6106,0h5.48266l15.99146,35.53613H240.1958Zm-2.08154-4.77149L227.40283,6.14258h-.10156l-7.71655,17.81933ZM253.856,0h5.48266V35.53613H253.856Zm18.73486,0h5.48267V30.6123h19.34179v4.92383H272.59082Z" style="fill: #3c3c44"/>
    </g>
  </g>
</svg>
