<svg xmlns="http://www.w3.org/2000/svg" width="9" height="474.08622" viewBox="0 0 9 474.08622">
  <g id="Layer_2" data-name="Layer 2">
    <g id="Layer_1-2" data-name="Layer 1">
      <path d="M8.06678,2.3787V0h.85207V5.65765H8.06678V3.24091h-6.53V2.3787ZM1.9197,8.85038l.96618-.7481.75825-.22823H8.91885v.86221H3.75824l-.497.1547-.634.48943-.32206.82925v.62383l.30177.809.65427.49958.50719.15469H8.91885v.86222H3.64413l-.75825-.22824-.96618-.74809L1.45309,10.978V10.055Zm6.99915,7.19949v4.732H8.06678V16.90955H5.88588v2.71091H5.03635V16.90955H2.38884v3.87236H1.53677v-4.732ZM1.88926,31.61792l.48944-.50718.61116.61115-.39307.39561-.29163.705v.76838l.35249.77853.43618.41589.4869.1978h.51986l.45647-.18765.47929-.45647.36264-.90279v-.66441h.6847l1.98309,1.44294V31.60778h.85207v3.74809H8.24429l-2.12-1.53677-.37278.99662-.72528.72781-.80135.29924H3.46661l-.809-.29924L1.94252,34.869l-.48943-1.10059v-1.1006Zm.01015,8.20626.738-.72781L3.53,38.72358l.9459-.17751h1.5038l.9459.17751.89265.37279.73542.72781L9,40.77008V41.754l-.44632.9459-.73542.72781-.89265.37278-.9459.175H4.47591l-.9459-.175-.89265-.37278-.738-.72781-.44632-.9459v-.98394Zm.40575,1.765.29163.601.55029.51987.601.24852.79881.15723H5.91885l.75571-.14709.17751-.071-3.9459-2.85545-.30938.29163-.29163.601Zm5.2519.90279.29163-.29163.30177-.6213v-.634l-.30177-.62383-.53-.51733-.64412-.24852-.75571-.14709H4.54691l-.79881.15723-.14455.06086ZM8.91885,53.99239v.90279l-6.08369,3.53H8.91885v.86221H1.53677v-1.027l5.83517-3.40575H1.53677v-.86222Zm-7.06,8.80727.71513-.705.9459-.47675.92308-.1978h1.6306l.93322.20794.92562.47676.69484.738L9,63.88v.89264l-.37278,1.0372-.69484.73795-.92562.47675-.93322.20795H4.44294l-.92308-.1978L2.574,66.5579l-.71513-.705-.40574-1.06v-.93322Zm.44633,1.8284.279.74557.459.46914.71513.36264.77853.16484H6l.69738-.1547.75571-.38292.44632-.48943.25105-.71514v-.60355l-.25105-.71513L7.45309,62.82,6.69738,62.437,6,62.28233H4.53677l-.77853.16484-.71513.36264-.459.46914-.279.74556Zm6.61369,4.29079v.91293l-6.04311,2.1809,6.04311,2.1809v.91293L1.53677,72.41843v-.8115ZM2.30516,85.19442,5.929,88.42265l.64159.32207H7.1437l.67456-.41336.3322-.69738v-.74556l-.35249-.738-.37532-.36263.6137-.6137.47675.45647L9,86.72105v1.12088l-.52747,1.0803-1.08031.6847H6.3956l-.93575-.45647-3.071-2.78191v3.32207H1.53677v-4.4962Zm-.40575,8.43449.738-.72781L3.53,92.52832l.9459-.17752h1.5038l.9459.17752.89265.37278.73542.72781L9,94.57227v.98648l-.44632.9459-.73542.72527-.89265.37532-.9459.175H4.47591l-.9459-.175-.89265-.37532-.738-.72527-.44632-.9459v-.98648Zm.40575,1.765.29163.601.55029.51986.601.24852.79881.15723H5.91885l.75571-.14708.17751-.071L2.90617,93.847l-.30938.29163-.29163.601Zm5.2519.90279.29163-.29163.30177-.6213v-.634L7.84869,94.126l-.53-.51733-.64412-.24852L5.91885,93.213H4.54691l-.79881.15723-.14455.06086Zm-5.2519,4.2705L5.929,103.79544l.64159.32206H7.1437l.67456-.41336.3322-.69738v-.74556l-.35249-.73795-.37532-.36264.6137-.6137.47675.45647L9,102.09383v1.12088l-.52747,1.0803-1.08031.6847H6.3956l-.93575-.45646-3.071-2.78191v3.32206H1.53677v-4.4962Zm.08368,7.93745V110.437H7.77515l-.91294-1.765.76839-.38546,1.28825,2.54353v.46915h-6.53v1.77515H1.53677v-4.56974Zm6.53,32.262v.85208l-7.38208,2.83262v-6.51732Zm-6.53,2.44971,5.34573-2.02367-5.34573-2.02367Zm5.67794,30.09129v-3.37278h.85207v4.37954H8.295l-6.75824-3v-.96365ZM2.93914,178.94v1.35926H1.53677V178.94Zm3.93322,0v1.35926H5.47253V178.94Zm-4.9831,6.40829.48944-.50719.61116.61116-.39307.3956-.29163.705v.76839l.35249.77853.43618.41589.4869.1978h.51986l.45647-.18766.47929-.45646.36264-.90279v-.66442h.6847l1.98309,1.44294v-2.60693h.85207v3.7481H8.24429l-2.12-1.53677-.37278.99662-.72528.72781-.80135.29924H3.46661l-.809-.29924-.71513-.67456-.48943-1.10059v-1.10059Zm.05326,7.85376.43618-.45647.61116.61116-.33221.34235-.35249.72781v.65427l.31192.69484.6213.4869.65427.17752h.90279l-.2891-.33221L4.1437,195.246v-.98647l.53762-1.07777.7481-.50972.71766-.1978h.82925l.75824.20794.738.51987L9,194.25951v1.21471l-.52747,1.07016-.77853.54015-.77853.21809H3.7481l-.8825-.24852-.92308-.70752-.48943-1.08031v-1.02705Zm3.05072,1.91969.29163.69485.39307.47929.29163.14455h.8191l.53-.14455.49958-.3525.3322-.66441v-.83178l-.3322-.66441-.40575-.279-.5503-.16737H6.23838l-.45647.13441-.43618.30177-.35249.67456Zm3.92561,13.01691v3.17752l-.25106.96365-.76838.76838L6.80135,213.35l-1.07016-.28149-.7481-.50719-.47675-.956v-2.60439H1.53677v-.86222Zm-3.563,3.21809.30178.62384.44632.29924.66442.17751.67455-.17751.44632-.44633.17752-.61115v-2.22147H5.35587Zm3.563,4.05241v.85207L4.973,218.05664l3.9459,1.79543v.85207H1.53677v-.86221h5.47l-3.02028-1.34912v-.87235l3.02028-1.34912h-5.47v-.86221Zm0,15.78867v3.17752l-.25106.96365-.76838.76838-1.09806.30178-1.07016-.28149-.7481-.50718-.47675-.95605V232.06H1.53677v-.86222Zm-3.563,3.21809.30178.62384.44632.29924.66442.17751.67455-.17751.44632-.44632.17752-.61116V232.06H5.35587Zm3.563,4.36433v2.70837l-.45647,1.164-.72781.71513-.91293.45647-.91547.23077H4.54691l-.91293-.23077-.91293-.45647-.72781-.71513-.45647-1.164v-2.70837Zm-6.53,2.54353.3525.85207.48689.47676.67456.34235.7481.1978H5.80473l.74557-.18766.67455-.35249.49958-.48944.34235-.82924v-1.69147H2.38884Zm5.67794,7.022V245.967h.85207v5.66019H8.06678V249.208h-6.53v-.86222Zm.85207,30.776v.85208l-7.38208,2.83262V276.2891Zm-6.53,2.44971,5.34573-2.02367-5.34573-2.02367Zm-.49958,26.75909.48944-.50719.61116.61116-.39307.3956-.29163.705v.76839l.35249.77852.43618.4159.4869.1978h.51986l.45647-.18766.47929-.45647.36264-.90279v-.66441h.6847l1.98309,1.44294v-2.60693h.85207v3.7481H8.24429l-2.12-1.53677-.37278.99662-.72528.72781-.80135.29924H3.46661l-.809-.29924-.71513-.67456L1.45309,310.481v-1.10059Zm6.17752,11.02113v-3.37278h.85207v4.37954H8.295l-6.75824-3v-.96365Zm-5.12764,5.63229v1.35926H1.53677v-1.35926Zm-1.19442,6.918.71513-.738.75824-.21809h.96619l.76838.24852.61116.65427.39561-.45647.71513-.279h.74809l.76839.25867.53.634.279.94336v.80135l-.279.94337-.53.634-.76839.25866H6.67456l-.71513-.279-.39561-.45646-.61116.65173-.76838.25106H3.21809l-.75824-.21809-.71513-.738-.29163-.96619v-.96365Zm.56044,1.81573.1978.62383.41335.43618.44633.11412H4.06l.44632-.1344.43618-.426.175-.47929v-1.00676l-.175-.47676-.43618-.426L4.06,331.80811H3.36264l-.44633.11412-.41335.43618-.1978.62384Zm3.64412.104.15469.44632L6.426,334.59l.40574.1344h.45647l.41589-.14455.279-.32206.16737-.601v-.61369l-.16737-.601-.279-.32207-.41589-.14454H6.83178l-.40574.1344-.32207.32206-.15469.44633Zm-4.06,5.257.48944-.50718.61116.61116-.39307.3956-.29163.705v.76838l.35249.77853.43618.41589.4869.19781h.51986l.45647-.18766.47929-.45647.36264-.90279v-.66441h.6847l1.98309,1.44294v-2.60693h.85207v3.7481H8.24429l-2.12-1.53677-.37278.99662-.72528.72781-.80135.29924H3.46661l-.809-.29924-.71513-.67456-.48943-1.10059v-1.10059Zm.4159,7.45816L5.929,349.765l.64159.32207H7.1437l.67456-.41336.3322-.69738v-.74556l-.35249-.738-.37532-.36263.6137-.6137.47675.45647L9,348.0634v1.12088l-.52747,1.0803-1.08031.6847H6.3956l-.93575-.45647-3.071-2.78191V351.033H1.53677v-4.4962Zm-.32207,8.37109.77853-.53761.77853-.21809H6.65427l.89264.24852.9459.705L9,356.186v1.027l-.4869,1.03973-.43618.45646-.61115-.61369.3322-.34235.35249-.72527v-.65427l-.3322-.69738-.64413-.4869-.66441-.17752h-.8191l.28909.33221.36264.87236v.97633l-.53762,1.0803-.74809.50719-.71767.1978H3.47929l-.75824-.20794-.738-.51733-.53-1.06V355.978Zm.32207,2.09721.3322.66441.40575.28149.5503.16484h.65173l.459-.13441.43618-.30177.35249-.67456v-.64159l-.29163-.69738-.39307-.48689-.29163-.16738H3.66441l-.53.14709-.497.35249-.3322.66441Zm-.36264,5.30009.43618-.45647.61116.61116-.33221.34235-.35249.72781v.65427l.31192.69484.6213.4869.65427.17751h.90279l-.2891-.3322-.36264-.86222v-.98647l.53762-1.07777.7481-.50972.71766-.1978h.82925l.75824.20794.738.51987L9,363.36264v1.21471l-.52747,1.07016-.77853.54015-.77853.21809H3.7481l-.8825-.24852-.92308-.70753-.48943-1.0803v-1.027Zm3.05072,1.91969.29163.69485.39307.47929.29163.14454h.8191l.53-.14454.49958-.3525.3322-.66441v-.83178l-.3322-.66442-.40575-.28148-.5503-.16484H6.23838l-.45647.1344-.43618.30178-.35249.67456Zm-2.6044,5.61961v1.93238H7.77515l-.91294-1.765.76839-.38292,1.28825,2.541v.46914h-6.53v1.77515H1.53677v-4.56974ZM.33221,378.705l1.19442.64412.18766-.47675H2.93914v1.35925h-1.268L0,379.27557Zm4.81825,14.37616v3.53H4.339v-3.53ZM2.38884,400.59v1.93237H7.77515l-.91294-1.765.76839-.38293,1.28825,2.541v.46915h-6.53v1.77514H1.53677V400.59Zm-.08368,7.43787L5.929,411.25613l.64159.32206H7.1437l.67456-.41335.3322-.69738v-.74557l-.35249-.73795-.37532-.36264.6137-.61369.47675.45646L9,409.55452v1.12088l-.52747,1.08031-1.08031.6847H6.3956l-.93575-.45647-3.071-2.78191v3.32206H1.53677V408.0279Zm0,7.68639L5.929,418.94252l.64159.32206H7.1437l.67456-.41335.3322-.69738v-.7481l-.35249-.73542-.37532-.36264.6137-.61369.47675.45646L9,417.24091v1.12088l-.52747,1.08031-1.08031.6847H6.3956l-.93575-.45647-3.071-2.78191v3.32206H1.53677v-4.49619Zm.634,9.19273v1.35925H1.53677V424.907Zm-1.04988,6.51225.48944-.50718.61116.61116-.39307.3956-.29163.705v.76838l.35249.77853.44632.41589.48944.19781h.601l.45647-.18766.48943-.47676.23838-.634v-.9459l-.21809-.64159.50718-.70752,3.25106.44632v3.48944H8.06678v-2.74134l-1.98309-.31192.14454.33221V433.661l-.37278.95605-.72781.72781-.79881.29924H3.46661l-.809-.29924-.71513-.67456-.48943-1.10059v-1.10059Zm1.55706,10.14624v-3.3322h.65427l4.81826,3.38546v.809H4.29839v1.11073H3.44632v-1.11073H1.53677v-.86222Zm.85207,0H7.38208L4.29839,439.3339Zm-2.40913,5.12257.48944-.50718.61116.61115-.39307.39561-.29163.705v.76838l.35249.77853.43618.41589.4869.1978h.51986l.45647-.18765.47929-.45647.36264-.90279v-.66441h.6847l1.98309,1.44294v-2.60693h.85207v3.7481H8.24429l-2.12-1.53678-.37278.99662-.72528.72781-.80135.29924H3.46661l-.809-.29924-.71513-.67455-.48943-1.10059V447.738Zm.01015,8.20626.738-.72781.89265-.37279.9459-.17751h1.5038l.9459.17751.89265.37279.73542.72781L9,455.84024v.98394l-.44632.9459-.73542.72781-.89265.37278-.9459.175H4.47591l-.9459-.175-.89265-.37278-.738-.72781-.44632-.9459v-.98394Zm.40575,1.765.29163.601.55029.51986.601.24852.79881.15723H5.91885l.75571-.14709.17751-.071-3.9459-2.85545-.30938.29163-.29163.601Zm5.2519.90279.29163-.29163.30177-.6213v-.634l-.30177-.62384-.53-.51733-.64412-.24852-.75571-.14709H4.54691l-.79881.15723-.14455.06086Zm-5.2519,4.2705L5.929,465.06086l.64159.32206H7.1437l.67456-.41335.3322-.69738v-.7481l-.35249-.73542-.37532-.36263.6137-.6137.47675.45647L9,463.35926v1.12088l-.52747,1.0803-1.08031.6847H6.3956l-.93575-.45647-3.071-2.78191v3.32207H1.53677v-4.4962Zm5.76162,11.24683v-3.37278h.85207v4.37954H8.295l-6.75824-3v-.96365Z" style="fill: currentColor"/>
    </g>
  </g>
</svg>
