<svg xmlns="http://www.w3.org/2000/svg" width="546.39923" height="66.36815" viewBox="0 0 546.39923 66.36815">
  <g id="Layer_2" data-name="Layer 2">
    <g id="Layer_1-2" data-name="Layer 1">
      <path d="M47.02635.00013l10.23955,0,0,66.368H47.02637l0-29.29678-36.7868,0,0,29.29678L0,66.36815,0,.00014H10.23955l0,27.87446,36.7868,0ZM216.07,52.14621h-.18954L196.4441.00009h-9.7656L167.33709,52.14622h-.18977L155.01148.0001H144.39285l15.64377,66.368h11.567l19.8156-51.67218h.18953l19.81563,51.67217H223.086L238.73.00007l-10.61886,0ZM317.114.00005l-14.3163,0-31.7619,33.46843H270.846l0-33.46842H260.60642l0,66.368,10.23955,0V47.40572l11.093-11.7563h.18977L305.547,66.36806h12.70467l-29.20192-37.64Zm147.14,66.368h10.23956l0-66.368H464.254ZM329.30777,9.19681l20.70819,0,0,57.17125h10.23955l0-57.17125,20.70818,0V0l-51.65592,0ZM514.12428,57.17125l0-57.17125H503.88471l0,66.368,42.5145,0V57.17124ZM109.652.00011l27.49037,66.368H126.59294L121.33015,53.663l-32.66971,0L83.39789,66.36812l-10.54987,0L100.33835.00011Zm7.9869,44.75122L104.9954,14.227,92.3517,44.75134ZM421.18173,0,448.6721,66.368H438.12269L432.8599,53.6629l-32.66949,0L394.92763,66.368H384.37776L411.86809,0Zm7.98713,44.75123L416.52514,14.227l-12.6437,30.52431Z" style="fill: currentColor"/>
    </g>
  </g>
</svg>
