<svg xmlns="http://www.w3.org/2000/svg" width="12" height="325.26678" viewBox="0 0 12 325.26678">
  <path d="M.129,174.43869v-1.35483l11.73785-4.504,0,10.36286Zm10.383-3.89514-8.5,3.21773,8.5,3.21773Zm.79437,153.91678-.77823.80645L9.5564,324.295l.625-.629.46371-1.121v-1.22177l-.56048-1.2379-.69355-.66128-.77418-.31452H7.79028l-.72581.29839-.76209.7258-.57661,1.43548v1.05644H4.63706l-3.15321-2.29434v4.14514H.129v-5.95965H1.2016l3.371,2.44354.59274-1.58467,1.15322-1.15725,1.27419-.47581H8.79834l1.28628.47581,1.13709,1.07257.77822,1.75v1.75ZM1.48386,306.93622v5.36288H.129l0-6.96368H1.121l10.74591,4.77014v1.53225Zm8.15319-8.9556v-2.16128h2.22983v2.16128Zm1.89919-11-1.1371,1.17338-1.20564.34677H7.65722l-1.22177-.39516-.97177-1.04031-.629.7258-1.13709.44355-1.18951,0-1.22177-.41128-.84273-1.00806L0,285.31535v-1.27418l.44355-1.5.84274-1.00806,1.22176-.41128H3.69756l1.1371.44354.629.72581.97177-1.03629,1.22177-.39919H9.19351l1.20564.34677,1.13709,1.17338.4637,1.53629v1.53225Zm-.89113-2.88708-.31451-.99193-.65726-.69355-.70967-.18145H7.8548l-.70967.21371-.69355.67741-.27822.7621v1.6008l.27822.75806.69355.67741.70967.21371H8.96367l.70967-.18145.65726-.69354.31451-.99193Zm-5.79433-.16533-.246-.70967-.5121-.51209-.64515-.21371H2.72176l-.66129.22983-.44354.5121-.26613.95564v.9758l.26613.95564.44354.5121.66129.22983h.7258l.64516-.2137.5121-.5121.246-.70967Zm6.45562-8.35883-.77822.80645-.97177-.97177.625-.629.4637-1.121v-1.22177l-.56048-1.2379-.69354-.66128-.77419-.31452H7.79029l-.7258.29839-.7621.7258-.57661,1.43548v1.05644H4.63708l-3.15321-2.29434v4.14514H.129l0-5.95965H1.20161l3.371,2.44354.59274-1.58467,1.15322-1.15725,1.27419-.47581H8.79835l1.28628.47581,1.1371,1.07257L12,272.1501v1.75Zm-.66128-11.85881-5.76207-5.133-1.02016-.5121H2.95161l-1.07258.65726-.52822,1.10886v1.18548l.56048,1.17338.59677.57661-.9758.9758-.75806-.7258L0,261.28321V259.501l.8387-1.71773,1.71774-1.08871H4.14112l1.48789.72581,4.883,4.42336,0-5.28223h1.35483v7.14916Zm.5121-13.31042-1.2379.85483-1.2379.34678-4.95159,0-1.41935-.39516-1.504-1.121L0,248.368v-1.63306l.77419-1.65322.69355-.7258.97177.9758-.52823.54435-.56048,1.15322v1.04032l.52822,1.10887,1.02419.77419,1.05645.28225H5.26208l-.45967-.52822-.57661-1.38709v-1.55241l.85483-1.71773,1.18951-.80645,1.14113-.31452H8.7782l1.20564.33065,1.17338.82258L12,246.76715v1.93144Zm-.5121-3.33466-.52822-1.05645-.64516-.44758-.875-.26209H7.56046l-.72984.2137-.69354.47984-.56048,1.07258v1.02015l.4637,1.10887.625.77419.46371.26613H8.48384l.84274-.23387.79032-.56048.52822-1.05645Zm.57661-8.42738-.69354.7258-.97177-.97177.52822-.54435.56049-1.15725v-1.04032l-.496-1.10484-.9879-.77419L8.12094,233.489H6.68547l.45967.52822.57661,1.371v1.56854l-.85483,1.7137-1.18951.81048-1.14113.31452H3.21774l-1.20564-.33065-1.17338-.82661L0,236.95671v-1.93144l.83871-1.70161,1.2379-.85886,1.2379-.34678,5.03626,0,1.40322.39516,1.46774,1.125L12,235.35591V236.989ZM6.371,235.58575l-.46371-1.10483-.625-.7621-.46371-.22983H3.51613l-.84274.22983-.79435.56048-.52823,1.05645v1.32258l.52823,1.05644.64516.44758.875.2621h.99193l.7258-.21371.69355-.47984.56048-1.07257Zm4.14111-8.93544v-3.07257H1.94759l1.4516,2.80644-1.22176.60887L.12905,222.95274v-.746h10.383v-2.82256H11.8669v7.26609ZM6.121,128.80181v-5.61287H7.41128v5.61287Zm4.39111-11.93946v-3.07256H1.9476l1.45161,2.80643-1.22177.60887-2.04838-4.0403v-.746l10.383,0v-2.82257h1.35483v7.2661Zm.13307-11.82655-5.76207-5.133-1.02016-.5121H2.95163l-1.07257.65726-.52822,1.10886v1.18548l.56048,1.17338.59677.57661-.9758.9758-.75807-.7258L0,102.60839v-1.78225l.8387-1.71774,1.71774-1.0887H4.14115l1.48789.7258,4.883,4.42337V97.88664h1.35484l0,7.14916Zm0-12.22172L4.88308,87.681l-1.02016-.5121H2.95164l-1.07258.65726-.52822,1.10886v1.18951l.56048,1.16935.59677.57661-.9758.97581-.75806-.72581L0,90.38667V88.60442l.83871-1.71773L2.55648,85.798H4.14115l1.4879.72581,4.883,4.42336V85.66492h1.35483v7.14916ZM9.63709,78.19721V76.03593h2.22983v2.16128Zm1.66935-10.35479-.77822.80645-.97177-.97177.625-.629.46371-1.121V64.70534l-.56048-1.23789L9.375,62.80616l-.77822-.31452H7.64114l-.7258.29839-.77823.75806-.379,1.00806v1.504l.34678,1.02016-.80645,1.125L.12908,67.49565V61.94729H1.48391v4.35885l3.15321.496-.22984-.52823v-1.996L5,62.75777l1.15726-1.15725,1.27015-.47581h1.371l1.28629.47581,1.13709,1.07257L12,64.42309v1.75Zm-2.47579-16.133V57.0078H7.79033l-7.66125-5.383V50.33847H7.47582V48.57235H8.83065v1.76612l3.03628,0v1.371Zm-1.35483,0-4.9032,0,4.9032,3.54838Zm3.83063-8.14513-.77822.80645L9.55646,43.399l.625-.629.4637-1.121V40.42723l-.56048-1.2379-.69354-.66128-.77419-.31452H7.79034l-.7258.29839-.7621.7258L5.72583,40.6732v1.05644H4.63713L1.48392,39.4353v4.14514H.12908l0-5.95965H1.20166l3.371,2.44354.59274-1.58467,1.15322-1.15725,1.27419-.47581H8.7984l1.28628.47581L11.22177,38.395,12,40.145v1.75ZM11.29033,30.516l-1.17339,1.15725L8.69759,32.266l-1.504.28226-2.39112,0-1.504-.28225-1.41935-.59274L.70973,30.516.00006,29.012V27.44745l.70967-1.504,1.16935-1.15726,1.41935-.59273,1.504-.27823H7.19357l1.504.27823,1.41935.59274,1.17338,1.15725L12,27.44745V29.012Zm-.64516-2.80644-.46371-.95564-.875-.82661-.95564-.39516-1.27015-.25H4.89923L3.69762,25.516l-.28226.1129,6.27417,4.54031.49193-.46371.46371-.95564ZM2.2944,26.27407l-.46371.46371-.47983.9879v1.00806l.47983.99193.84274.82257,1.02419.39516,1.20161.23387H7.08067l1.27015-.25.22984-.09678Zm8.35077-6.79029-5.76207-5.133L3.863,13.83865H2.95166l-1.07258.65725-.52822,1.10887v1.18951l.56048,1.16935.59677.57661-.9758.9758-.75806-.72581L.00006,17.05637V15.27412l.83871-1.71773L2.5565,12.46768H4.14117l1.4879.72581,4.883,4.42337V12.33462h1.35483v7.14916ZM1.48393,1.6008V6.96368H.12909L.1291,0H1.121L11.86694,4.77014V6.30239Z" style="fill: currentColor"/>
</svg>
