<svg xmlns="http://www.w3.org/2000/svg" width="12" height="338.81032" viewBox="0 0 12 338.81032">
  <path d="M10.51612,3.78226V0H11.871V8.996H10.51612V5.15322H.13306v-1.371ZM.74194,14.07257l1.53628-1.18951,1.20565-.3629H11.871v1.371H3.66532l-.79032.246-1.00807.77823-.51209,1.31854v.99194l.47984,1.28629,1.04032.79435.80645.246H11.871v1.371H3.48387l-1.20565-.36291L.74194,19.371,0,17.45564V15.9879ZM11.871,25.52015v7.52419H10.51612V26.88708H7.04838v4.31049H5.69758V26.88708H1.4879v6.15726H.13306V25.52015ZM.69355,50.27417l.77822-.80645.97178.97177-.625.629-.46371,1.121v1.22177l.56048,1.23791.69355.66129.77419.31451h.82662l.7258-.29838.7621-.72581.57661-1.43548V52.10885H7.3629l3.15322,2.29435V50.258H11.871v5.95967H10.79838l-3.371-2.44354-.59275,1.58467L5.68145,56.5161l-1.27419.47581H3.20161L1.91532,56.5161.77823,55.44352,0,53.69352v-1.75ZM.70968,63.32255l1.17338-1.15726,1.41936-.59274,1.504-.28226H7.19758l1.504.28226,1.41935.59274,1.16936,1.15726L12,64.82658V66.3911l-.70968,1.504L10.121,69.05239l-1.41935.59274-1.504.27822H4.80645l-1.504-.27822-1.41936-.59274L.70968,67.89513,0,66.3911V64.82658ZM1.35484,66.129l.46371.95565.875.82661.95564.39516,1.27016.25H7.1008l1.20162-.23387.28225-.11291L2.31048,63.66932l-.49193.46371-.46371.95565Zm8.3508,1.43548.46371-.46371.47984-.9879V65.10481l-.47984-.99194-.84274-.82258-1.02419-.39516L7.1008,62.66126H4.91935l-1.27016.25-.22984.09677ZM11.871,85.85077v1.43548l-9.67338,5.6129H11.871v1.371H.13307V92.63705l9.27822-5.41532H.13307v-1.371ZM.64516,99.85479l1.1371-1.121,1.504-.75806L4.754,97.66124H7.34677l1.48387.33065,1.47178.75806,1.10483,1.17339L12,101.57253v1.41936l-.59275,1.64919-1.10483,1.17339-1.47178.75806-1.48387.33064H4.754l-1.46774-.31451-1.504-.75807-1.1371-1.121L0,103.02414v-1.48387Zm.70968,2.90726.44355,1.18548.72984.746,1.13709.57661,1.23791.2621H7.22984l1.10887-.246,1.20161-.60887.70968-.77823.39919-1.13709v-.95968l-.39919-1.1371-.70968-.77822-1.20161-.60887-1.10887-.246H4.90323l-1.23791.2621-1.13709.57661-.72984.746-.44355,1.18548ZM11.871,109.58462v1.45162L2.2621,114.504l9.60886,3.46774v1.45161L.13307,115.14914v-1.29032Zm0,52.95159v1.35484l-11.7379,4.504v-10.3629ZM1.48791,166.43137l8.5-3.21774-8.5-3.21774Zm9.02822,47.84675v-5.3629H11.871v6.96371H10.879l-10.746-4.77016v-1.53226Zm-8.15322,8.95564v2.16129H.13307v-2.16129Zm6.254,0v2.16129H6.39113v-2.16129ZM.69355,233.42327l.77823-.80645.97177.97178-.625.629-.46371,1.121v1.22177l.56049,1.2379.69355.66129.77419.31452h.82661l.72581-.29839.76209-.7258.57662-1.43549V235.258H7.36291l3.15322,2.29435v-4.14515H11.871v5.95967H10.79839l-3.371-2.44355L6.83468,238.508l-1.15323,1.15726-1.27419.4758H3.20162l-1.28629-.4758-1.1371-1.07258L0,236.84263v-1.75Zm.08468,12.4879.69355-.7258.97177.97177-.52822.54435-.56049,1.15726v1.04032l.496,1.10484.9879.7742,1.04033.28225H5.31452l-.45968-.52822-.57661-1.371v-1.56855l.85484-1.71371,1.18951-.81048,1.14113-.31452H8.78226l1.20564.33065,1.17339.82661L12,247.59262v1.93145l-.83871,1.70162-1.2379.85887-1.2379.34677H3.6492L2.246,252.03617l-1.46774-1.125L0,249.19343v-1.63307ZM5.629,248.96359l.4637,1.10484.625.76209.46371.22984H8.48387l.84274-.22984L10.121,250.27l.52822-1.05645V247.891l-.52822-1.05645-.64516-.44355-.875-.26613H7.60887l-.7258.21371-.69355.47984L5.629,247.891ZM11.871,269.66116v5.05242l-.3992,1.53225L10.25,277.46761l-1.746.47984-1.70161-.44758-1.18951-.80645-.75807-1.52017v-4.14112H.13307v-1.371Zm-5.66532,5.11693.47984.99194.70967.4758,1.05646.28226,1.07258-.28226.70967-.70967.28226-.97178v-3.53225H6.20565Zm5.66532,6.44355v1.35484l-6.27419,2.85483,6.27419,2.85484V289.641H.13307V288.27H8.83065l-4.80242-2.14516v-1.38709l4.80242-2.14516H.13307v-1.371Zm0,25.10483v5.05241l-.39919,1.53226L10.25,314.13291l-1.746.47984-1.70162-.44758-1.18951-.80645-.75807-1.52016v-4.14113H.13307v-1.371ZM6.20565,311.4434l.47984.99193.70967.47581,1.05646.28226,1.07258-.28226.70967-.70968.28226-.97177v-3.53226H6.20565Zm5.66532,6.93951v4.30645l-.72581,1.85081-1.15725,1.13709-1.45162.72581L7.08065,326.77H4.91936l-1.45161-.36693-1.45161-.72581L.85888,324.54017l-.72581-1.85081v-4.30645ZM1.48791,322.42726l.56048,1.35484.7742.75807,1.07258.54435,1.18951.31452H6.91936l1.18548-.29839,1.07258-.56048.79436-.77823.54435-1.31855v-2.68951H1.48791Zm9.02822,11.16532v-3.78226H11.871v9H10.51613v-3.84677H.13307v-1.371Z" style="fill: currentColor"/>
</svg>
